solid obstable
  facet normal 0.00000000e+00 0.00000000e+00 -1.00000000e+00
    outer loop
      vertex 1.50000000e-01 0.00000000e+00 -1.00000000e-02
      vertex 2.50000000e-01 5.00000000e-02 -1.00000000e-02
      vertex 2.50000000e-01 0.00000000e+00 -1.00000000e-02
    endloop
  endfacet
  facet normal 0.00000000e+00 0.00000000e+00 -1.00000000e+00
    outer loop
      vertex 1.50000000e-01 0.00000000e+00 -1.00000000e-02
      vertex 1.50000000e-01 5.00000000e-02 -1.00000000e-02
      vertex 2.50000000e-01 5.00000000e-02 -1.00000000e-02
    endloop
  endfacet
  facet normal 0.00000000e+00 0.00000000e+00 1.00000000e+00
    outer loop
      vertex 1.50000000e-01 0.00000000e+00 1.00000000e-02
      vertex 2.50000000e-01 0.00000000e+00 1.00000000e-02
      vertex 2.50000000e-01 5.00000000e-02 1.00000000e-02
    endloop
  endfacet
  facet normal 0.00000000e+00 0.00000000e+00 1.00000000e+00
    outer loop
      vertex 1.50000000e-01 0.00000000e+00 1.00000000e-02
      vertex 2.50000000e-01 5.00000000e-02 1.00000000e-02
      vertex 1.50000000e-01 5.00000000e-02 1.00000000e-02
    endloop
  endfacet
  facet normal 0.00000000e+00 -1.00000000e+00 0.00000000e+00
    outer loop
      vertex 1.50000000e-01 0.00000000e+00 -1.00000000e-02
      vertex 2.50000000e-01 0.00000000e+00 -1.00000000e-02
      vertex 2.50000000e-01 0.00000000e+00 1.00000000e-02
    endloop
  endfacet
  facet normal 0.00000000e+00 -1.00000000e+00 0.00000000e+00
    outer loop
      vertex 1.50000000e-01 0.00000000e+00 -1.00000000e-02
      vertex 2.50000000e-01 0.00000000e+00 1.00000000e-02
      vertex 1.50000000e-01 0.00000000e+00 1.00000000e-02
    endloop
  endfacet
  facet normal 0.00000000e+00 1.00000000e+00 0.00000000e+00
    outer loop
      vertex 2.50000000e-01 5.00000000e-02 -1.00000000e-02
      vertex 1.50000000e-01 5.00000000e-02 -1.00000000e-02
      vertex 1.50000000e-01 5.00000000e-02 1.00000000e-02
    endloop
  endfacet
  facet normal 0.00000000e+00 1.00000000e+00 0.00000000e+00
    outer loop
      vertex 2.50000000e-01 5.00000000e-02 -1.00000000e-02
      vertex 1.50000000e-01 5.00000000e-02 1.00000000e-02
      vertex 2.50000000e-01 5.00000000e-02 1.00000000e-02
    endloop
  endfacet
  facet normal -1.00000000e+00 0.00000000e+00 0.00000000e+00
    outer loop
      vertex 1.50000000e-01 0.00000000e+00 -1.00000000e-02
      vertex 1.50000000e-01 0.00000000e+00 1.00000000e-02
      vertex 1.50000000e-01 5.00000000e-02 1.00000000e-02
    endloop
  endfacet
  facet normal -1.00000000e+00 0.00000000e+00 0.00000000e+00
    outer loop
      vertex 1.50000000e-01 0.00000000e+00 -1.00000000e-02
      vertex 1.50000000e-01 5.00000000e-02 1.00000000e-02
      vertex 1.50000000e-01 5.00000000e-02 -1.00000000e-02
    endloop
  endfacet
  facet normal 1.00000000e+00 0.00000000e+00 0.00000000e+00
    outer loop
      vertex 2.50000000e-01 0.00000000e+00 -1.00000000e-02
      vertex 2.50000000e-01 5.00000000e-02 -1.00000000e-02
      vertex 2.50000000e-01 5.00000000e-02 1.00000000e-02
    endloop
  endfacet
  facet normal 1.00000000e+00 0.00000000e+00 0.00000000e+00
    outer loop
      vertex 2.50000000e-01 0.00000000e+00 -1.00000000e-02
      vertex 2.50000000e-01 5.00000000e-02 1.00000000e-02
      vertex 2.50000000e-01 0.00000000e+00 1.00000000e-02
    endloop
  endfacet
endsolid obstable
